
        <svg xmlns="http://www.w3.org/2000/svg" xmlns:xlink="http://www.w3.org/1999/xlink" version="1.1" width="3187.5" 
        height="1188.3094818433988" viewBox="0 0 3187.5 1188.3094818433988">
			
			<g transform="scale(9.375) translate(10, 10)">
				<defs id="SvgjsDefs1532"></defs><g id="SvgjsG1533" featureKey="ghXSps-0" transform="matrix(1.3262597859115253,0,0,1.3262597859115253,-15.517251890399814,-14.965515191498792)" fill="#11999e"><path xmlns="http://www.w3.org/2000/svg" d="M82.1,63.6c-0.5,0-1,0.1-1.5,0.2l-9.6-14.3c0.8-1.1,1.3-2.5,1.3-3.9c0-1.5-0.5-2.9-1.3-4l9.4-17.1c0.4,0.1,0.9,0.2,1.3,0.2  c2.9,0,5.2-2.3,5.2-5.2s-2.3-5.2-5.2-5.2s-5.2,2.3-5.2,5.2c0,1.7,0.8,3.2,2.1,4.2l-9.1,16.5c-1.1-0.8-2.5-1.3-4-1.3  c-2.1,0-4,1-5.2,2.5c0,0-0.1-0.1-0.1-0.1l-22.7-8.8c0.4-0.9,0.7-1.9,0.7-3c0-3.7-3-6.7-6.7-6.7s-6.7,3-6.7,6.7s3,6.7,6.7,6.7  c1.9,0,3.7-0.8,4.9-2.1l23,8.9c-0.3,0.8-0.5,1.6-0.5,2.5c0,0.8,0.1,1.6,0.4,2.3l-23.9,4.8c-1-2.5-3.5-4.3-6.4-4.3  c-3.8,0-6.9,3.1-6.9,6.9c0,2.3,1.1,4.4,2.9,5.6l-7,14c-0.4-0.1-0.7-0.1-1.1-0.1c-2.9,0-5.2,2.3-5.2,5.2s2.3,5.2,5.2,5.2  s5.2-2.3,5.2-5.2c0-1.8-0.9-3.4-2.3-4.3l6.9-13.8c0.7,0.2,1.4,0.4,2.2,0.4c3.8,0,6.9-3.1,6.9-6.9c0-0.2,0-0.4,0-0.6l24.4-4.9  c1.2,1.6,3.2,2.6,5.3,2.6c1.5,0,2.9-0.5,4-1.4l9.3,13.7c-1.2,1-2,2.4-2,4.1c0,0.8,0.2,1.5,0.5,2.2l-14.2,7.2c-1.2-1.8-3.3-3-5.6-3  c-3.7,0-6.7,3-6.7,6.7s3,6.7,6.7,6.7s6.7-3,6.7-6.7c0-0.7-0.1-1.3-0.3-1.9l14.5-7.4c0.9,0.9,2.2,1.4,3.5,1.4c2.9,0,5.2-2.3,5.2-5.2  S85,63.6,82.1,63.6z M81.8,16.3c1.8,0,3.2,1.4,3.2,3.2s-1.4,3.2-3.2,3.2s-3.2-1.4-3.2-3.2S80,16.3,81.8,16.3z M31.5,34.3  c-2.6,0-4.7-2.1-4.7-4.7c0-2.6,2.1-4.7,4.7-4.7c2.6,0,4.7,2.1,4.7,4.7C36.3,32.2,34.1,34.3,31.5,34.3z M16.9,83.1  c-1.8,0-3.2-1.4-3.2-3.2s1.4-3.2,3.2-3.2s3.2,1.4,3.2,3.2S18.7,83.1,16.9,83.1z M29,60.1c-2.7,0-4.9-2.2-4.9-4.9  c0-2.7,2.2-4.9,4.9-4.9c2.7,0,4.9,2.2,4.9,4.9C33.9,57.9,31.7,60.1,29,60.1z M60.9,45.6c0-2.6,2.1-4.7,4.7-4.7  c2.6,0,4.7,2.1,4.7,4.7s-2.1,4.7-4.7,4.7C63,50.4,60.9,48.2,60.9,45.6z M57.6,86.7c-2.6,0-4.7-2.1-4.7-4.7c0-2.6,2.1-4.7,4.7-4.7  s4.7,2.1,4.7,4.7C62.4,84.6,60.2,86.7,57.6,86.7z M82.1,72c-1.8,0-3.2-1.4-3.2-3.2s1.4-3.2,3.2-3.2s3.2,1.4,3.2,3.2S83.9,72,82.1,72  z"></path></g><g id="SvgjsG1534" featureKey="anH1Ye-0" transform="matrix(9.250694259056775,0,0,9.250694259056775,111.67437428463396,-79.18594673927178)" fill="#40514e"><path d="M5.08 9.92 c1.68 0 3.5 1.26 3.5 3.62 l0 1.14 c0 0.38 -0.26 0.62 -0.66 0.62 l-6.3 0 l0 1.26 c0 1.78 1.02 2.84 2.88 2.84 l0.58 0 c1.48 0 1.88 -0.68 2.56 -1.48 c0.14 -0.16 0.2 -0.22 0.4 -0.08 l0.14 0.1 c0.2 0.14 0.16 0.26 0.04 0.42 c-0.72 0.88 -1.44 1.74 -3.14 1.74 l-0.58 0 c-2.08 0 -3.6 -1.24 -3.6 -3.5 l0 -3.04 c0 -2.42 1.52 -3.64 3.6 -3.64 l0.58 0 z M7.86 14.6 l0 -0.9 c0 -2.06 -1.2 -3.08 -2.78 -3.08 l-0.58 0 c-1.86 0 -2.88 1.02 -2.88 3.06 l0 0.92 l6.24 0 z M9.88 10.32 c-0.06 -0.18 -0.02 -0.32 0.18 -0.32 l0.2 0 c0.2 0 0.24 0.14 0.3 0.32 l2.86 8.92 l2.86 -8.92 c0.06 -0.18 0.12 -0.32 0.32 -0.32 l0.2 0 c0.2 0 0.22 0.14 0.18 0.32 l-3.02 9.4 c-0.08 0.18 -0.16 0.28 -0.38 0.28 l-0.32 0 c-0.22 0 -0.3 -0.1 -0.36 -0.28 z M22.22 10.7 l-1.76 0 l0 6.14 c0 1.76 0.4 2.48 1.82 2.52 c0.16 0 0.22 0.14 0.24 0.28 l-0.02 0.14 c0.02 0.14 -0.08 0.26 -0.24 0.26 c-1.78 -0.06 -2.48 -1.08 -2.48 -3.16 l0 -6.18 l-1.1 0 c-0.2 0 -0.3 -0.1 -0.3 -0.3 l0 -0.08 c0 -0.22 0.1 -0.32 0.3 -0.32 l1.1 0 l0 -1.14 c0 -0.2 0.1 -0.3 0.3 -0.3 l0.08 0 c0.2 0 0.3 0.1 0.3 0.3 l0 1.14 l1.74 0 c0.22 0 0.32 0.1 0.32 0.3 l0 0.1 c0 0.2 -0.08 0.3 -0.3 0.3 z"></path></g>
			</g>
		</svg>
	